# xmcd
#
# Track frame offsets:
#	150
#	15084
#	34869
#	49486
#	64197
#	81243
#	95678
#	110530
#	127234
#	138546
#	153716
#	170433
#
# Disc length: 2513 seconds
#
# Revision: 0
# Processed by: cddbd v1.5.2PL0 Copyright (c) Steve Scherf et al.
# Submitted via: EasyCDDAExtractor 11.0.0.1
#
DISCID=a909cf0c
DTITLE=ΑΜΑΝ ΑΜΑΝ - ΟΛΑ ΣΟΥ
DYEAR=2001
DGENRE=ΛΑΪΚΑ
TTITLE0=ΟΛΑ ΣΟΥ
TTITLE1=ΤΙ ΜΟΥ ΕΜΕΙΝΕ
TTITLE2=ΕΧΩ ΕΜΕΝΑ
TTITLE3=ΚΑΝΩ ΤΟ ΠΡΩΤΟ ΒΗΜΑ
TTITLE4=ΕΣΥ ΤΑ ΦΤΑΙΣ
TTITLE5=ΓΙΑ ΑΥΤΗΝ
TTITLE6=ΕΙΣΑΙ ΜΕΣΑ ΣΤΙΣ ΦΛΕΒΕΣ ΜΟΥ
TTITLE7=ΜΕ ΜΑΥΡΟ ΣΠΡΕΥ
TTITLE8=ΔΕΝ ΠΟΝΑΣ ΔΕΝ ΥΠΟΦΕΡΕΙΣ
TTITLE9=ΑΚΟΥΡΑΣΤΗ ΚΑΡΔΙΑ
TTITLE10=ΣΕ ΕΝΑ ΜΗΝΑ ΣΕ ΕΝΑ ΧΡΟΝΟ
TTITLE11=ΗΜΕΡΟΛΟΓΙΟ ΠΑΛΙΟ
EXTD=
EXTT0=
EXTT1=
EXTT2=
EXTT3=
EXTT4=
EXTT5=
EXTT6=
EXTT7=
EXTT8=
EXTT9=
EXTT10=
EXTT11=
PLAYORDER=
